<svg width="516" height="116" viewBox="0 0 516 116" fill="none" xmlns="http://www.w3.org/2000/svg">
<path d="M24.1606 10.6955C23.8618 9.60672 23.4241 8.58735 22.8477 7.63736C22.2713 6.6767 21.5562 5.83879 20.7022 5.12362C19.859 4.39779 18.8823 3.83207 17.7722 3.42645C16.6728 3.02084 15.4453 2.81803 14.0897 2.81803C11.9549 2.81803 10.0442 3.37308 8.35772 4.48318C6.67123 5.59328 5.33697 7.19439 4.35496 9.2865C3.38362 11.3786 2.89796 13.8977 2.89796 16.8437C2.89796 19.7791 3.38896 22.2928 4.37097 24.3849C5.35298 26.477 6.69791 28.0835 8.40576 29.2042C10.1243 30.3143 12.0883 30.8694 14.2978 30.8694C16.3152 30.8694 18.0978 30.4211 19.6455 29.5245C21.1933 28.6278 22.3994 27.347 23.264 25.6818C24.1393 24.0167 24.5662 22.0366 24.5449 19.7417L25.5056 20.0459H15.0023V17.3561H27.4589V20.0459C27.4589 22.8425 26.8932 25.2602 25.7617 27.2989C24.6303 29.3377 23.0772 30.9121 21.1025 32.0222C19.1278 33.1323 16.8596 33.6873 14.2978 33.6873C11.4372 33.6873 8.93412 32.9989 6.78864 31.6219C4.64316 30.2343 2.97267 28.2809 1.77718 25.7619C0.592364 23.2321 -4.45362e-05 20.2594 -4.45362e-05 16.8437C-4.45362e-05 14.2713 0.341525 11.9497 1.02466 9.87891C1.7078 7.80814 2.6738 6.03625 3.92266 4.56324C5.1822 3.09022 6.67123 1.96411 8.38975 1.18491C10.1083 0.395027 12.0082 8.77287e-05 14.0897 8.77287e-05C15.8829 8.77287e-05 17.5214 0.282949 19.0051 0.848673C20.4994 1.4144 21.8123 2.1936 22.9438 3.18629C24.0859 4.1683 25.0199 5.30508 25.7457 6.59664C26.4822 7.87752 26.9786 9.2438 27.2348 10.6955H24.1606ZM34.2996 33.239V8.64606H37.0695V12.4247H37.2777C37.7687 11.1865 38.6226 10.1885 39.8395 9.4306C41.067 8.66207 42.4546 8.2778 44.0023 8.2778C44.2372 8.2778 44.4987 8.28314 44.7869 8.29381C45.0751 8.30449 45.3152 8.31516 45.5074 8.32584V11.2238C45.3793 11.2025 45.1551 11.1705 44.8349 11.1278C44.5147 11.0851 44.1678 11.0637 43.7942 11.0637C42.5133 11.0637 41.3712 11.3359 40.3678 11.8803C39.3751 12.414 38.5906 13.1558 38.0142 14.1058C37.4378 15.0558 37.1496 16.1392 37.1496 17.3561V33.239H34.2996ZM59.5651 33.7514C57.2702 33.7514 55.2848 33.2177 53.609 32.1503C51.9331 31.0722 50.6362 29.5832 49.7183 27.6832C48.811 25.7725 48.3573 23.5737 48.3573 21.0866C48.3573 18.6103 48.811 16.4114 49.7183 14.4901C50.6362 12.5581 51.9011 11.0477 53.5129 9.95896C55.1353 8.85954 57.0086 8.30982 59.1328 8.30982C60.467 8.30982 61.7532 8.55533 62.9914 9.04633C64.2296 9.52666 65.3397 10.2685 66.3217 11.2719C67.3144 12.2646 68.099 13.5188 68.6754 15.0345C69.2518 16.5395 69.54 18.3221 69.54 20.3822V21.7911H50.3267V19.2774H66.6259C66.6259 17.6976 66.3057 16.278 65.6653 15.0185C65.0355 13.7482 64.1549 12.7449 63.0235 12.0084C61.9027 11.2719 60.6058 10.9036 59.1328 10.9036C57.5744 10.9036 56.2028 11.3199 55.0179 12.1525C53.8331 12.9851 52.9045 14.0845 52.232 15.4508C51.5702 16.817 51.234 18.3114 51.2233 19.9338V21.4389C51.2233 23.3922 51.5595 25.1001 52.232 26.5624C52.9151 28.0141 53.8811 29.1402 55.13 29.9408C56.3789 30.7413 57.8572 31.1416 59.5651 31.1416C60.7285 31.1416 61.7479 30.9601 62.6232 30.5972C63.5091 30.2343 64.251 29.7486 64.8487 29.1402C65.4571 28.5211 65.9161 27.8433 66.2257 27.1068L68.9315 27.9874C68.5579 29.0228 67.9442 29.9781 67.0903 30.8534C66.247 31.7287 65.1903 32.4331 63.9201 32.9668C62.6605 33.4899 61.2089 33.7514 59.5651 33.7514ZM82.689 33.7994C81.2053 33.7994 79.8497 33.5112 78.6222 32.9348C77.3947 32.3478 76.418 31.5045 75.6922 30.4051C74.9664 29.295 74.6035 27.95 74.6035 26.3703C74.6035 25.1535 74.8329 24.1287 75.2919 23.2962C75.7509 22.4636 76.402 21.7805 77.2453 21.2468C78.0885 20.7131 79.0865 20.2914 80.2393 19.9819C81.3921 19.6723 82.6623 19.4322 84.05 19.2614C85.4269 19.0906 86.5904 18.9412 87.5404 18.8131C88.501 18.685 89.2322 18.4822 89.7339 18.2047C90.2356 17.9271 90.4864 17.4788 90.4864 16.8597V16.2833C90.4864 14.6075 89.9847 13.2893 88.9814 12.3286C87.9887 11.3573 86.5584 10.8716 84.6904 10.8716C82.9185 10.8716 81.4722 11.2612 80.3514 12.0404C79.2413 12.8196 78.4621 13.7376 78.0138 14.7943L75.3079 13.8176C75.863 12.4727 76.6315 11.4 77.6135 10.5994C78.5955 9.78818 79.695 9.20644 80.9118 8.8542C82.1286 8.49128 83.3615 8.30982 84.6104 8.30982C85.5497 8.30982 86.5263 8.43258 87.5404 8.67808C88.5651 8.92358 89.5151 9.35054 90.3903 9.95896C91.2656 10.5567 91.9754 11.3946 92.5198 12.4727C93.0642 13.5401 93.3364 14.8957 93.3364 16.5395V33.239H90.4864V29.3483H90.3103C89.9687 30.0742 89.4617 30.7787 88.7892 31.4618C88.1168 32.1449 87.2735 32.7053 86.2595 33.143C85.2455 33.5806 84.0553 33.7994 82.689 33.7994ZM83.0733 31.1896C84.589 31.1896 85.9019 30.8534 87.012 30.1809C88.1221 29.5085 88.976 28.6172 89.5738 27.5071C90.1822 26.3863 90.4864 25.1535 90.4864 23.8085V20.2541C90.2729 20.4569 89.9154 20.6383 89.4137 20.7984C88.9227 20.9586 88.3516 21.1027 87.7005 21.2307C87.0601 21.3482 86.4196 21.4496 85.7792 21.535C85.1387 21.6203 84.5623 21.6951 84.05 21.7591C82.6623 21.9299 81.4775 22.1967 80.4955 22.5597C79.5135 22.9226 78.761 23.4243 78.238 24.0647C77.7149 24.6945 77.4534 25.5057 77.4534 26.4984C77.4534 27.9927 77.9871 29.1509 79.0545 29.9728C80.1219 30.784 81.4615 31.1896 83.0733 31.1896ZM110.604 8.64606V11.1278H98.8682V8.64606H110.604ZM102.535 2.75399H105.401V26.8186C105.401 27.8433 105.577 28.6492 105.929 29.2363C106.281 29.8127 106.74 30.2236 107.306 30.4691C107.872 30.7039 108.475 30.8214 109.115 30.8214C109.489 30.8214 109.809 30.8 110.076 30.7573C110.343 30.7039 110.578 30.6506 110.78 30.5972L111.389 33.175C111.111 33.2817 110.77 33.3778 110.364 33.4632C109.959 33.5593 109.457 33.6073 108.859 33.6073C107.813 33.6073 106.804 33.3778 105.833 32.9188C104.872 32.4598 104.082 31.7767 103.463 30.8694C102.844 29.9621 102.535 28.836 102.535 27.4911V2.75399ZM317.315 33.239V8.64606H320.181V33.239H317.315ZM318.772 4.41914C318.185 4.41914 317.683 4.22167 317.267 3.82673C316.851 3.42112 316.643 2.93545 316.643 2.36972C316.643 1.804 316.851 1.32367 317.267 0.92873C317.683 0.523115 318.185 0.320308 318.772 0.320308C319.359 0.320308 319.861 0.523115 320.277 0.92873C320.693 1.32367 320.901 1.804 320.901 2.36972C320.901 2.93545 320.693 3.42112 320.277 3.82673C319.861 4.22167 319.359 4.41914 318.772 4.41914ZM344.242 14.0418L341.632 14.7783C341.376 14.0418 341.013 13.3747 340.543 12.7769C340.073 12.1792 339.46 11.7042 338.702 11.3519C337.955 10.9997 337.026 10.8236 335.916 10.8236C334.251 10.8236 332.884 11.2185 331.817 12.0084C330.75 12.7983 330.216 13.8176 330.216 15.0665C330.216 16.1232 330.579 16.9825 331.305 17.6443C332.041 18.2954 333.173 18.8131 334.699 19.1973L338.414 20.11C340.474 20.6116 342.016 21.4069 343.041 22.4956C344.076 23.5844 344.594 24.9506 344.594 26.5944C344.594 27.9821 344.21 29.2149 343.441 30.293C342.672 31.3711 341.6 32.2197 340.223 32.8388C338.857 33.4472 337.271 33.7514 335.468 33.7514C333.066 33.7514 331.086 33.2123 329.527 32.1343C327.969 31.0455 326.971 29.4764 326.533 27.427L329.271 26.7546C329.623 28.2169 330.312 29.3217 331.337 30.0688C332.372 30.816 333.733 31.1896 335.419 31.1896C337.309 31.1896 338.819 30.768 339.951 29.9247C341.082 29.0708 341.648 28.0034 341.648 26.7225C341.648 25.7298 341.317 24.8973 340.655 24.2248C339.993 23.5417 338.99 23.04 337.645 22.7198L333.626 21.7591C331.491 21.2468 329.912 20.4355 328.887 19.3254C327.862 18.2153 327.35 16.8384 327.35 15.1946C327.35 13.839 327.718 12.6488 328.455 11.6241C329.191 10.5887 330.205 9.7775 331.497 9.19043C332.788 8.60336 334.261 8.30982 335.916 8.30982C338.168 8.30982 339.967 8.82218 341.312 9.84688C342.667 10.8609 343.644 12.2592 344.242 14.0418ZM0.0408728 104.376V65.7564H9.26217V80.3709H9.45075C9.8279 79.4909 10.3622 78.6423 11.0536 77.8252C11.7576 77.008 12.6502 76.3417 13.7314 75.8263C14.8251 75.2983 16.1326 75.0343 17.6537 75.0343C19.6652 75.0343 21.5447 75.5623 23.2921 76.6183C25.0522 77.6743 26.4727 79.3024 27.5539 81.5024C28.6351 83.7024 29.1757 86.5059 29.1757 89.9128C29.1757 93.194 28.6539 95.9409 27.6105 98.1535C26.5796 100.366 25.1842 102.026 23.4241 103.132C21.6767 104.238 19.7343 104.791 17.5972 104.791C16.1389 104.791 14.8754 104.552 13.8068 104.075C12.7382 103.597 11.8394 102.968 11.1102 102.189C10.3936 101.41 9.84047 100.574 9.45075 99.681H9.16788V104.376H0.0408728ZM9.0736 89.894C9.0736 91.4528 9.28103 92.8106 9.69589 93.9672C10.1233 95.1238 10.7331 96.0226 11.5251 96.6638C12.3297 97.2924 13.2914 97.6067 14.4103 97.6067C15.5417 97.6067 16.5034 97.2924 17.2954 96.6638C18.0875 96.0226 18.6846 95.1238 19.0869 93.9672C19.5018 92.8106 19.7092 91.4528 19.7092 89.894C19.7092 88.3351 19.5018 86.9836 19.0869 85.8396C18.6846 84.6956 18.0875 83.8093 17.2954 83.1807C16.516 82.5521 15.5543 82.2378 14.4103 82.2378C13.2788 82.2378 12.3171 82.5458 11.5251 83.1618C10.7331 83.7779 10.1233 84.6579 9.69589 85.8019C9.28103 86.9459 9.0736 88.3099 9.0736 89.894ZM52.6956 91.874V75.4114H61.8981V104.376H53.1105V98.9833H52.8088C52.1676 100.756 51.0739 102.164 49.5276 103.207C47.9938 104.238 46.1395 104.754 43.9646 104.754C41.9909 104.754 40.256 104.301 38.76 103.396C37.2639 102.491 36.1011 101.227 35.2713 99.6056C34.4416 97.9712 34.0204 96.0604 34.0079 93.8729V75.4114H43.2292V92.0626C43.2417 93.634 43.6566 94.8723 44.4738 95.7775C45.2909 96.6826 46.4035 97.1352 47.8115 97.1352C48.7293 97.1352 49.5527 96.9341 50.2819 96.5318C51.0236 96.1169 51.6082 95.5198 52.0356 94.7403C52.4756 93.9483 52.6956 92.9929 52.6956 91.874ZM67.7674 104.376V75.4114H76.9887V104.376H67.7674ZM72.3875 72.0359C71.0926 72.0359 69.9801 71.6085 69.0498 70.7536C68.1195 69.8862 67.6543 68.8427 67.6543 67.6233C67.6543 66.4164 68.1195 65.3855 69.0498 64.5307C69.9801 63.6632 71.0926 63.2295 72.3875 63.2295C73.695 63.2295 74.8076 63.6632 75.7253 64.5307C76.6556 65.3855 77.1207 66.4164 77.1207 67.6233C77.1207 68.8427 76.6556 69.8862 75.7253 70.7536C74.8076 71.6085 73.695 72.0359 72.3875 72.0359ZM92.0794 65.7564V104.376H82.8581V65.7564H92.0794ZM114.298 75.4114V82.2001H96.0253V75.4114H114.298ZM99.8534 68.4719H109.075V95.2683C109.075 95.8341 109.163 96.2929 109.339 96.6449C109.527 96.9844 109.798 97.2295 110.15 97.3804C110.502 97.5187 110.923 97.5878 111.413 97.5878C111.765 97.5878 112.136 97.5564 112.526 97.4935C112.928 97.4181 113.23 97.3552 113.431 97.3049L114.826 103.962C114.386 104.087 113.764 104.244 112.959 104.433C112.167 104.622 111.218 104.741 110.112 104.791C107.95 104.892 106.095 104.64 104.549 104.037C103.015 103.421 101.84 102.466 101.023 101.171C100.218 99.8758 99.8283 98.2478 99.8534 96.2866V68.4719ZM130.412 104.376V65.7564H139.633V80.3709H139.822C140.199 79.4909 140.733 78.6423 141.425 77.8252C142.129 77.008 143.021 76.3417 144.102 75.8263C145.196 75.2983 146.504 75.0343 148.025 75.0343C150.036 75.0343 151.916 75.5623 153.663 76.6183C155.423 77.6743 156.844 79.3024 157.925 81.5024C159.006 83.7024 159.547 86.5059 159.547 89.9128C159.547 93.194 159.025 95.9409 157.982 98.1535C156.951 100.366 155.555 102.026 153.795 103.132C152.048 104.238 150.105 104.791 147.968 104.791C146.51 104.791 145.246 104.552 144.178 104.075C143.109 103.597 142.21 102.968 141.481 102.189C140.765 101.41 140.212 100.574 139.822 99.681H139.539V104.376H130.412ZM139.445 89.894C139.445 91.4528 139.652 92.8106 140.067 93.9672C140.494 95.1238 141.104 96.0226 141.896 96.6638C142.701 97.2924 143.662 97.6067 144.781 97.6067C145.913 97.6067 146.874 97.2924 147.667 96.6638C148.459 96.0226 149.056 95.1238 149.458 93.9672C149.873 92.8106 150.08 91.4528 150.08 89.894C150.08 88.3351 149.873 86.9836 149.458 85.8396C149.056 84.6956 148.459 83.8093 147.667 83.1807C146.887 82.5521 145.925 82.2378 144.781 82.2378C143.65 82.2378 142.688 82.5458 141.896 83.1618C141.104 83.7779 140.494 84.6579 140.067 85.8019C139.652 86.9459 139.445 88.3099 139.445 89.894ZM169.084 115.238C167.978 115.238 166.934 115.15 165.954 114.974C164.973 114.811 164.131 114.591 163.427 114.314L165.463 107.62C166.368 107.922 167.186 108.098 167.915 108.148C168.656 108.198 169.291 108.079 169.819 107.79C170.36 107.513 170.775 107.017 171.064 106.3L171.422 105.433L161.126 75.4114H170.781L176.118 96.0792H176.419L181.832 75.4114H191.543L180.625 107.149C180.097 108.733 179.349 110.128 178.381 111.335C177.425 112.554 176.187 113.51 174.666 114.201C173.157 114.893 171.296 115.238 169.084 115.238ZM219.99 115.842C217.236 115.842 214.879 115.458 212.918 114.692C210.957 113.925 209.417 112.875 208.298 111.542C207.179 110.21 206.507 108.701 206.28 107.017L215.011 106.526C215.175 107.117 215.476 107.633 215.916 108.073C216.369 108.513 216.954 108.852 217.67 109.091C218.399 109.33 219.254 109.449 220.235 109.449C221.781 109.449 223.057 109.072 224.063 108.318C225.081 107.576 225.59 106.275 225.59 104.414V99.3227H225.27C224.905 100.215 224.352 101.014 223.61 101.718C222.868 102.422 221.944 102.975 220.838 103.377C219.744 103.779 218.487 103.98 217.067 103.98C214.955 103.98 213.019 103.49 211.259 102.51C209.511 101.516 208.109 99.9827 207.053 97.9084C206.01 95.8215 205.488 93.1374 205.488 89.8562C205.488 86.4745 206.029 83.6899 207.11 81.5024C208.191 79.3024 209.605 77.6743 211.353 76.6183C213.113 75.5623 215.005 75.0343 217.029 75.0343C218.55 75.0343 219.851 75.2983 220.932 75.8263C222.026 76.3417 222.925 77.008 223.629 77.8252C224.333 78.6423 224.867 79.4909 225.232 80.3709H225.496V75.4114H234.68V104.49C234.68 106.941 234.064 109.009 232.832 110.694C231.599 112.378 229.877 113.654 227.665 114.522C225.452 115.402 222.894 115.842 219.99 115.842ZM220.272 97.2672C221.391 97.2672 222.347 96.9718 223.139 96.3809C223.931 95.7901 224.541 94.9415 224.968 93.8352C225.395 92.7289 225.609 91.4026 225.609 89.8562C225.609 88.2848 225.395 86.9333 224.968 85.8019C224.553 84.6579 223.943 83.7779 223.139 83.1618C222.347 82.5458 221.391 82.2378 220.272 82.2378C219.128 82.2378 218.16 82.5521 217.368 83.1807C216.576 83.8093 215.973 84.6956 215.558 85.8396C215.156 86.9711 214.955 88.3099 214.955 89.8562C214.955 91.4026 215.162 92.7289 215.577 93.8352C215.992 94.9415 216.589 95.7901 217.368 96.3809C218.16 96.9718 219.128 97.2672 220.272 97.2672ZM240.558 104.376V75.4114H249.516V80.6915H249.817C250.345 78.7806 251.207 77.36 252.401 76.4297C253.595 75.4869 254.984 75.0154 256.568 75.0154C256.996 75.0154 257.436 75.0469 257.888 75.1097C258.341 75.16 258.762 75.2417 259.152 75.3549V83.3693C258.712 83.2184 258.134 83.099 257.417 83.011C256.713 82.923 256.084 82.879 255.531 82.879C254.437 82.879 253.451 83.1241 252.571 83.6144C251.703 84.0921 251.018 84.7647 250.515 85.6322C250.025 86.487 249.78 87.4928 249.78 88.6494V104.376H240.558ZM274.945 104.923C271.915 104.923 269.3 104.326 267.1 103.132C264.913 101.925 263.228 100.209 262.046 97.9838C260.877 95.7461 260.293 93.0872 260.293 90.0071C260.293 87.0151 260.884 84.4002 262.065 82.1624C263.247 79.9121 264.913 78.1646 267.063 76.92C269.212 75.6629 271.745 75.0343 274.662 75.0343C276.724 75.0343 278.61 75.3549 280.319 75.996C282.029 76.6372 283.506 77.5863 284.751 78.8435C285.995 80.1007 286.963 81.6533 287.655 83.5013C288.346 85.3367 288.692 87.4425 288.692 89.8185V92.1191H263.517V86.7636H280.112C280.099 85.783 279.867 84.9093 279.414 84.1424C278.962 83.3756 278.339 82.7784 277.547 82.351C276.768 81.911 275.869 81.691 274.851 81.691C273.82 81.691 272.896 81.9235 272.079 82.3887C271.261 82.8413 270.614 83.4636 270.136 84.2556C269.659 85.035 269.407 85.9213 269.382 86.9145V92.3643C269.382 93.546 269.615 94.5832 270.08 95.4758C270.545 96.3558 271.205 97.0409 272.06 97.5312C272.915 98.0215 273.933 98.2667 275.115 98.2667C275.932 98.2667 276.674 98.1535 277.34 97.9272C278.006 97.701 278.578 97.3678 279.056 96.9278C279.534 96.4878 279.892 95.9472 280.131 95.3061L288.598 95.5512C288.246 97.4495 287.473 99.1027 286.278 100.511C285.097 101.906 283.544 102.994 281.62 103.773C279.697 104.54 277.472 104.923 274.945 104.923ZM301.567 104.867C299.719 104.867 298.078 104.559 296.645 103.943C295.225 103.314 294.099 102.371 293.27 101.114C292.453 99.8444 292.044 98.2541 292.044 96.3432C292.044 94.734 292.327 93.3763 292.893 92.27C293.458 91.1637 294.238 90.2648 295.231 89.5734C296.224 88.8819 297.368 88.3602 298.663 88.0082C299.958 87.6436 301.341 87.3985 302.812 87.2728C304.458 87.1219 305.785 86.9648 306.79 86.8013C307.796 86.6253 308.525 86.3802 308.978 86.0659C309.443 85.739 309.676 85.2802 309.676 84.6893V84.595C309.676 83.627 309.343 82.879 308.676 82.351C308.01 81.823 307.111 81.559 305.98 81.559C304.76 81.559 303.78 81.823 303.038 82.351C302.296 82.879 301.825 83.6081 301.624 84.5384L293.119 84.2367C293.37 82.4767 294.018 80.9052 295.061 79.5224C296.117 78.1269 297.563 77.0332 299.398 76.2412C301.246 75.4366 303.465 75.0343 306.055 75.0343C307.903 75.0343 309.607 75.2543 311.165 75.6943C312.724 76.1217 314.082 76.7503 315.239 77.58C316.395 78.3972 317.288 79.4029 317.916 80.5972C318.558 81.7915 318.878 83.1556 318.878 84.6893V104.376H310.204V100.341H309.977C309.462 101.322 308.802 102.151 307.997 102.83C307.205 103.509 306.269 104.018 305.188 104.358C304.119 104.697 302.912 104.867 301.567 104.867ZM304.414 98.8324C305.408 98.8324 306.3 98.6313 307.092 98.229C307.897 97.8267 308.538 97.2735 309.016 96.5695C309.493 95.8529 309.732 95.0232 309.732 94.0803V91.3271C309.468 91.4654 309.148 91.5911 308.771 91.7043C308.406 91.8174 308.004 91.9243 307.564 92.0249C307.124 92.1254 306.671 92.2134 306.206 92.2889C305.741 92.3643 305.294 92.4334 304.867 92.4963C304 92.6346 303.258 92.8483 302.642 93.1374C302.038 93.4266 301.573 93.8037 301.246 94.2689C300.932 94.7215 300.775 95.2621 300.775 95.8906C300.775 96.8461 301.114 97.5752 301.793 98.0781C302.485 98.581 303.358 98.8324 304.414 98.8324ZM340.866 75.4114V82.2001H322.593V75.4114H340.866ZM326.421 68.4719H335.642V95.2683C335.642 95.8341 335.73 96.2929 335.906 96.6449C336.095 96.9844 336.365 97.2295 336.717 97.3804C337.069 97.5187 337.49 97.5878 337.981 97.5878C338.333 97.5878 338.704 97.5564 339.093 97.4935C339.496 97.4181 339.797 97.3552 339.998 97.3049L341.394 103.962C340.954 104.087 340.332 104.244 339.527 104.433C338.735 104.622 337.786 104.741 336.68 104.791C334.517 104.892 332.663 104.64 331.117 104.037C329.583 103.421 328.407 102.466 327.59 101.171C326.786 99.8758 326.396 98.2478 326.421 96.2866V68.4719Z" fill="#1A202C"/>
<path d="M128.845 33.239V0.448397H141.782C144.269 0.448397 146.388 0.923392 148.138 1.87338C149.889 2.8127 151.223 4.12027 152.141 5.79609C153.07 7.46124 153.534 9.38256 153.534 11.5601C153.534 13.7376 153.064 15.6589 152.125 17.324C151.186 18.9892 149.825 20.2861 148.042 21.2147C146.27 22.1434 144.125 22.6077 141.606 22.6077H133.36V17.0519H140.485C141.819 17.0519 142.919 16.8224 143.783 16.3634C144.658 15.8937 145.31 15.2479 145.737 14.426C146.174 13.5935 146.393 12.6381 146.393 11.5601C146.393 10.4713 146.174 9.52133 145.737 8.7101C145.31 7.8882 144.658 7.25309 143.783 6.80479C142.908 6.3458 141.798 6.11631 140.453 6.11631H135.778V33.239H128.845ZM157.909 33.239V8.64606H164.522V12.937H164.778C165.226 11.4106 165.979 10.2578 167.035 9.47863C168.092 8.68875 169.309 8.29381 170.686 8.29381C171.027 8.29381 171.396 8.31516 171.791 8.35786C172.185 8.40055 172.532 8.45926 172.831 8.53398V14.5862C172.511 14.4901 172.068 14.4047 171.502 14.33C170.937 14.2553 170.419 14.2179 169.949 14.2179C168.946 14.2179 168.049 14.4367 167.259 14.8744C166.48 15.3013 165.861 15.8991 165.402 16.6676C164.954 17.4361 164.73 18.3221 164.73 19.3254V33.239H157.909ZM186.325 33.7194C183.838 33.7194 181.687 33.191 179.872 32.1343C178.068 31.0669 176.675 29.5832 175.693 27.6832C174.711 25.7725 174.22 23.5577 174.22 21.0386C174.22 18.4982 174.711 16.278 175.693 14.378C176.675 12.4674 178.068 10.9837 179.872 9.92694C181.687 8.85954 183.838 8.32584 186.325 8.32584C188.812 8.32584 190.957 8.85954 192.761 9.92694C194.576 10.9837 195.974 12.4674 196.956 14.378C197.938 16.278 198.429 18.4982 198.429 21.0386C198.429 23.5577 197.938 25.7725 196.956 27.6832C195.974 29.5832 194.576 31.0669 192.761 32.1343C190.957 33.191 188.812 33.7194 186.325 33.7194ZM186.357 28.4357C187.488 28.4357 188.433 28.1155 189.191 27.4751C189.948 26.8239 190.519 25.938 190.904 24.8172C191.299 23.6964 191.496 22.4209 191.496 20.9906C191.496 19.5603 191.299 18.2847 190.904 17.1639C190.519 16.0432 189.948 15.1572 189.191 14.5061C188.433 13.855 187.488 13.5294 186.357 13.5294C185.214 13.5294 184.254 13.855 183.475 14.5061C182.706 15.1572 182.124 16.0432 181.729 17.1639C181.345 18.2847 181.153 19.5603 181.153 20.9906C181.153 22.4209 181.345 23.6964 181.729 24.8172C182.124 25.938 182.706 26.8239 183.475 27.4751C184.254 28.1155 185.214 28.4357 186.357 28.4357ZM211.926 33.6393C210.058 33.6393 208.366 33.159 206.851 32.1983C205.346 31.227 204.15 29.802 203.264 27.9234C202.389 26.0341 201.951 23.7178 201.951 20.9746C201.951 18.1566 202.405 15.8137 203.312 13.9457C204.22 12.0671 205.426 10.6634 206.931 9.73481C208.447 8.79549 210.106 8.32584 211.91 8.32584C213.287 8.32584 214.435 8.56066 215.353 9.03032C216.281 9.48931 217.028 10.0657 217.594 10.7595C218.171 11.4427 218.608 12.1151 218.907 12.7769H219.115V0.448397H225.92V33.239H219.195V29.3003H218.907C218.587 29.9835 218.133 30.6613 217.546 31.3337C216.97 31.9955 216.217 32.5452 215.289 32.9829C214.371 33.4205 213.25 33.6393 211.926 33.6393ZM214.088 28.2116C215.187 28.2116 216.116 27.9127 216.874 27.3149C217.642 26.7065 218.229 25.8579 218.635 24.7692C219.051 23.6804 219.259 22.4049 219.259 20.9425C219.259 19.4802 219.056 18.21 218.651 17.1319C218.245 16.0538 217.658 15.2213 216.89 14.6342C216.121 14.0471 215.187 13.7536 214.088 13.7536C212.967 13.7536 212.022 14.0578 211.254 14.6662C210.485 15.2746 209.904 16.1179 209.509 17.196C209.114 18.274 208.916 19.5229 208.916 20.9425C208.916 22.3729 209.114 23.6377 209.509 24.7372C209.914 25.8259 210.496 26.6798 211.254 27.2989C212.022 27.9074 212.967 28.2116 214.088 28.2116ZM247.299 22.7678V8.64606H254.119V33.239H247.571V28.7719H247.315C246.76 30.2129 245.836 31.3711 244.545 32.2463C243.264 33.1216 241.7 33.5593 239.854 33.5593C238.21 33.5593 236.763 33.1857 235.515 32.4385C234.266 31.6913 233.289 30.6292 232.585 29.2523C231.891 27.8753 231.538 26.2262 231.528 24.3049V8.64606H238.348V23.088C238.359 24.5397 238.749 25.6872 239.517 26.5304C240.286 27.3737 241.316 27.7953 242.607 27.7953C243.429 27.7953 244.198 27.6085 244.913 27.2349C245.628 26.8506 246.205 26.2849 246.642 25.5377C247.091 24.7905 247.309 23.8672 247.299 22.7678ZM270.687 33.7194C268.168 33.7194 266.001 33.1857 264.186 32.1183C262.382 31.0402 260.995 29.5458 260.023 27.6352C259.063 25.7245 258.582 23.5257 258.582 21.0386C258.582 18.5195 259.068 16.31 260.039 14.41C261.021 12.4994 262.414 11.0104 264.218 9.94295C266.022 8.86487 268.168 8.32584 270.655 8.32584C272.8 8.32584 274.679 8.71544 276.291 9.49464C277.902 10.2738 279.178 11.3679 280.117 12.7769C281.057 14.1859 281.574 15.8404 281.67 17.7403H275.234C275.052 16.5128 274.572 15.5255 273.793 14.7783C273.024 14.0204 272.016 13.6415 270.767 13.6415C269.71 13.6415 268.787 13.9297 267.997 14.5061C267.218 15.0718 266.609 15.8991 266.172 16.9878C265.734 18.0766 265.515 19.3948 265.515 20.9425C265.515 22.5116 265.729 23.8459 266.156 24.9453C266.593 26.0447 267.207 26.8826 267.997 27.459C268.787 28.0354 269.71 28.3236 270.767 28.3236C271.546 28.3236 272.245 28.1635 272.864 27.8433C273.494 27.5231 274.012 27.0588 274.417 26.4503C274.834 25.8313 275.106 25.0894 275.234 24.2248H281.67C281.564 26.1034 281.051 27.7579 280.133 29.1882C279.226 30.6079 277.972 31.718 276.371 32.5185C274.77 33.3191 272.875 33.7194 270.687 33.7194ZM299.118 8.64606V13.7696H284.308V8.64606H299.118ZM287.671 2.75399H294.491V25.6818C294.491 26.3116 294.587 26.8026 294.779 27.1548C294.972 27.4964 295.238 27.7366 295.58 27.8753C295.932 28.0141 296.338 28.0835 296.797 28.0835C297.117 28.0835 297.437 28.0568 297.757 28.0034C298.078 27.9394 298.323 27.8913 298.494 27.8593L299.567 32.9348C299.225 33.0416 298.745 33.1643 298.126 33.3031C297.507 33.4525 296.754 33.5432 295.868 33.5753C294.224 33.6393 292.783 33.4205 291.545 32.9188C290.318 32.4171 289.362 31.6379 288.679 30.5812C287.996 29.5245 287.66 28.1902 287.671 26.5784V2.75399Z" fill="url(#paint0_linear_238_1242)"/>
<path d="M373.329 75.4114V82.2001H355.056V75.4114H373.329ZM358.884 68.4719H368.106V95.2683C368.106 95.8341 368.194 96.2929 368.37 96.6449C368.558 96.9844 368.828 97.2295 369.18 97.3804C369.532 97.5187 369.954 97.5878 370.444 97.5878C370.796 97.5878 371.167 97.5564 371.556 97.4935C371.959 97.4181 372.26 97.3552 372.462 97.3049L373.857 103.962C373.417 104.087 372.795 104.244 371.99 104.433C371.198 104.622 370.249 104.741 369.143 104.791C366.98 104.892 365.126 104.64 363.58 104.037C362.046 103.421 360.871 102.466 360.053 101.171C359.249 99.8758 358.859 98.2478 358.884 96.2866V68.4719ZM391.262 104.923C388.233 104.923 385.618 104.326 383.418 103.132C381.23 101.925 379.546 100.209 378.364 97.9838C377.195 95.7461 376.61 93.0872 376.61 90.0071C376.61 87.0151 377.201 84.4002 378.383 82.1624C379.565 79.9121 381.23 78.1646 383.38 76.92C385.53 75.6629 388.063 75.0343 390.98 75.0343C393.041 75.0343 394.927 75.3549 396.637 75.996C398.347 76.6372 399.824 77.5863 401.068 78.8435C402.313 80.1007 403.281 81.6533 403.972 83.5013C404.664 85.3367 405.01 87.4425 405.01 89.8185V92.1191H379.835V86.7636H396.429C396.417 85.783 396.184 84.9093 395.732 84.1424C395.279 83.3756 394.657 82.7784 393.865 82.351C393.085 81.911 392.186 81.691 391.168 81.691C390.137 81.691 389.213 81.9235 388.396 82.3887C387.579 82.8413 386.932 83.4636 386.454 84.2556C385.976 85.035 385.725 85.9213 385.7 86.9145V92.3643C385.7 93.546 385.932 94.5832 386.397 95.4758C386.862 96.3558 387.522 97.0409 388.377 97.5312C389.232 98.0215 390.25 98.2667 391.432 98.2667C392.249 98.2667 392.991 98.1535 393.657 97.9272C394.324 97.701 394.896 97.3678 395.373 96.9278C395.851 96.4878 396.209 95.9472 396.448 95.3061L404.915 95.5512C404.563 97.4495 403.79 99.1027 402.596 100.511C401.414 101.906 399.861 102.994 397.938 103.773C396.015 104.54 393.789 104.923 391.262 104.923ZM417.884 104.867C416.036 104.867 414.396 104.559 412.963 103.943C411.542 103.314 410.417 102.371 409.587 101.114C408.77 99.8444 408.361 98.2541 408.361 96.3432C408.361 94.734 408.644 93.3763 409.21 92.27C409.776 91.1637 410.555 90.2648 411.548 89.5734C412.542 88.8819 413.686 88.3602 414.98 88.0082C416.275 87.6436 417.658 87.3985 419.129 87.2728C420.776 87.1219 422.102 86.9648 423.108 86.8013C424.114 86.6253 424.843 86.3802 425.295 86.0659C425.761 85.739 425.993 85.2802 425.993 84.6893V84.595C425.993 83.627 425.66 82.879 424.994 82.351C424.327 81.823 423.429 81.559 422.297 81.559C421.078 81.559 420.097 81.823 419.355 82.351C418.614 82.879 418.142 83.6081 417.941 84.5384L409.436 84.2367C409.688 82.4767 410.335 80.9052 411.379 79.5224C412.435 78.1269 413.88 77.0332 415.716 76.2412C417.564 75.4366 419.783 75.0343 422.373 75.0343C424.221 75.0343 425.924 75.2543 427.483 75.6943C429.042 76.1217 430.4 76.7503 431.556 77.58C432.713 78.3972 433.605 79.4029 434.234 80.5972C434.875 81.7915 435.196 83.1556 435.196 84.6893V104.376H426.521V100.341H426.295C425.779 101.322 425.119 102.151 424.315 102.83C423.523 103.509 422.586 104.018 421.505 104.358C420.437 104.697 419.23 104.867 417.884 104.867ZM420.732 98.8324C421.725 98.8324 422.618 98.6313 423.41 98.229C424.214 97.8267 424.855 97.2735 425.333 96.5695C425.811 95.8529 426.05 95.0232 426.05 94.0803V91.3271C425.786 91.4654 425.465 91.5911 425.088 91.7043C424.723 91.8174 424.321 91.9243 423.881 92.0249C423.441 92.1254 422.989 92.2134 422.523 92.2889C422.058 92.3643 421.612 92.4334 421.185 92.4963C420.317 92.6346 419.575 92.8483 418.959 93.1374C418.356 93.4266 417.891 93.8037 417.564 94.2689C417.25 94.7215 417.092 95.2621 417.092 95.8906C417.092 96.8461 417.432 97.5752 418.111 98.0781C418.802 98.581 419.676 98.8324 420.732 98.8324ZM440.834 104.376V75.4114H449.603V80.7292H449.923C450.527 78.9692 451.545 77.58 452.978 76.5617C454.411 75.5434 456.121 75.0343 458.107 75.0343C460.119 75.0343 461.841 75.5497 463.274 76.5806C464.708 77.6115 465.619 78.9943 466.009 80.7292H466.31C466.851 79.0069 467.907 77.6303 469.479 76.5995C471.05 75.556 472.904 75.0343 475.041 75.0343C477.782 75.0343 480.007 75.9143 481.717 77.6743C483.427 79.4218 484.282 81.823 484.282 84.8779V104.376H475.06V86.9899C475.06 85.5442 474.689 84.4442 473.948 83.6899C473.206 82.923 472.244 82.5396 471.063 82.5396C469.793 82.5396 468.793 82.9544 468.064 83.7841C467.348 84.6013 466.989 85.7013 466.989 87.0842V104.376H458.126V86.8956C458.126 85.5505 457.762 84.4882 457.033 83.7087C456.303 82.9293 455.342 82.5396 454.147 82.5396C453.343 82.5396 452.633 82.7344 452.017 83.1241C451.4 83.5013 450.916 84.0419 450.564 84.7459C450.225 85.4499 450.055 86.2796 450.055 87.2351V104.376H440.834ZM515.283 84.2556L506.816 84.4819C506.728 83.8784 506.489 83.3441 506.1 82.879C505.71 82.4013 505.201 82.0304 504.572 81.7664C503.956 81.4898 503.24 81.3515 502.422 81.3515C501.354 81.3515 500.442 81.5652 499.688 81.9927C498.946 82.4201 498.582 82.9984 498.594 83.7276C498.582 84.2933 498.808 84.7836 499.273 85.1985C499.751 85.6133 500.6 85.9465 501.819 86.1979L507.401 87.2539C510.292 87.8071 512.442 88.7248 513.85 90.0071C515.271 91.2894 515.987 92.9866 516 95.0986C515.987 97.0849 515.396 98.8135 514.227 100.284C513.071 101.755 511.487 102.899 509.475 103.716C507.464 104.521 505.163 104.923 502.573 104.923C498.437 104.923 495.175 104.075 492.786 102.378C490.41 100.668 489.053 98.3798 488.713 95.5135L497.821 95.2872C498.022 96.3432 498.544 97.1478 499.386 97.701C500.229 98.2541 501.304 98.5307 502.611 98.5307C503.793 98.5307 504.755 98.3107 505.496 97.8707C506.238 97.4307 506.615 96.8461 506.628 96.1169C506.615 95.4632 506.326 94.9415 505.76 94.5518C505.195 94.1495 504.308 93.8352 503.101 93.6089L498.048 92.6472C495.144 92.1191 492.981 91.1448 491.561 89.7242C490.14 88.2911 489.436 86.4682 489.449 84.2556C489.436 82.3195 489.951 80.6664 490.995 79.2961C492.038 77.9132 493.522 76.8572 495.445 76.128C497.369 75.3989 499.638 75.0343 502.253 75.0343C506.175 75.0343 509.268 75.8577 511.531 77.5046C513.794 79.1389 515.044 81.3892 515.283 84.2556Z" fill="url(#paint1_linear_238_1242)"/>
<defs>
<linearGradient id="paint0_linear_238_1242" x1="257.621" y1="-21.8674" x2="257.621" y2="120.407" gradientUnits="userSpaceOnUse">
<stop stop-color="#DE4396"/>
<stop offset="1" stop-color="#0D1C9F" stop-opacity="0"/>
</linearGradient>
<linearGradient id="paint1_linear_238_1242" x1="518.125" y1="-21.8674" x2="445.813" y2="242.936" gradientUnits="userSpaceOnUse">
<stop stop-color="#F7666F"/>
<stop offset="1" stop-color="#406AFF"/>
</linearGradient>
</defs>
</svg>
